<svg width="6" height="6" viewBox="0 0 6 6" fill="none" xmlns="http://www.w3.org/2000/svg">
<path d="M3 0C1.34318 0 0 1.34318 0 3C0 4.65682 1.34318 6 3 6C4.65682 6 6 4.65682 6 3C6 1.34318 4.65682 0 3 0ZM3 5.5C1.61932 5.5 0.500004 4.38068 0.500004 3C0.500004 1.61932 1.61932 0.500004 3 0.500004C4.38068 0.500004 5.5 1.61932 5.5 3C5.5 4.38068 4.38068 5.5 3 5.5Z" fill="#1D1D1D"/>
<path d="M4.07323 2.32322L3 3.39645L1.92678 2.32322C1.82915 2.22559 1.67085 2.22559 1.57322 2.32322C1.47559 2.42085 1.47559 2.57915 1.57322 2.67678L2.82323 3.92678C2.92085 4.02441 3.07915 4.02441 3.17678 3.92678L4.42678 2.67678C4.52441 2.57915 4.52441 2.42085 4.42678 2.32322C4.32914 2.22559 4.17086 2.22559 4.07323 2.32322Z" fill="#1D1D1D"/>
</svg>
