<svg width="38" height="30" fill="none" xmlns="http://www.w3.org/2000/svg"><path d="M30.572 15.015a1.482 1.482 0 001.057.447 1.5 1.5 0 001.06-.44l4.874-4.89a1.5 1.5 0 00-1.055-2.558 1.49 1.49 0 00-1.056.439l-2.1 2.108v-.293a10.2 10.2 0 00-1.61-5.48A9.729 9.729 0 0027.2.692 9.689 9.689 0 0021.392.3a8.58 8.58 0 00-4.621 3.085l-.094.114-.094-.114A8.584 8.584 0 0011.962.3 9.193 9.193 0 009.643 0 9.872 9.872 0 005.1 1.19a9.913 9.913 0 00-3.487 3.156C-.343 7.31-1.166 12.58 2.949 17.678c3.538 4.385 12.503 11.59 12.883 11.89a1.177 1.177 0 001.3.264c.144-.061.275-.151.385-.264.316-.253 7.789-6.262 11.785-10.625a.453.453 0 00-.037-.622l-1.628-1.654a.449.449 0 00-.66-.006 116.904 116.904 0 01-10.224 9.365l-.07.07-.052-.043h-.077v-.064c-1.456-1.202-8.262-6.884-11.075-10.372-3.003-3.72-2.564-7.332-1.152-9.472a6.474 6.474 0 012.995-2.409 6.448 6.448 0 013.829-.281 8.894 8.894 0 013.933 2.597c.65.642 1.163 1.15 1.596 1.15.434 0 .942-.506 1.592-1.149a8.896 8.896 0 013.928-2.59 6.447 6.447 0 013.828.281 6.474 6.474 0 012.995 2.409 6.836 6.836 0 011.082 3.83l-.004.293-2.216-2.26a1.481 1.481 0 00-1.053-.446h-.011a1.488 1.488 0 00-1.377.92 1.503 1.503 0 00.314 1.63l4.814 4.896z" fill="#363740"/></svg>