<svg width="38" height="30" viewBox="0 0 38 30" fill="none" xmlns="http://www.w3.org/2000/svg">
<path d="M30.5715 15.0155C30.7094 15.1566 30.8741 15.2688 31.0557 15.3453C31.2373 15.4219 31.4323 15.4615 31.6293 15.4616C32.0266 15.4612 32.4077 15.3033 32.6896 15.0223L37.5629 10.1312C37.8428 9.8503 38 9.46933 38 9.07206C38 8.6748 37.8428 8.2938 37.5629 8.01289C37.283 7.73198 36.9034 7.57416 36.5076 7.57416C36.1117 7.57416 35.7321 7.73198 35.4523 8.01289L33.3517 10.1211V9.82847C33.3482 7.88459 32.7898 5.98241 31.7427 4.34712C30.6359 2.69215 29.0506 1.41708 27.2002 0.693429C25.3497 -0.0302247 23.3228 -0.167735 21.3922 0.299375C19.5539 0.785535 17.9284 1.87053 16.771 3.3841L16.6769 3.49795L16.5828 3.3841C15.4251 1.87072 13.7998 0.785771 11.9616 0.299375C11.2047 0.101352 10.4257 0.000747554 9.64346 0C8.05555 0.0248089 6.49689 0.432659 5.09902 1.18911C3.70116 1.94556 2.50512 3.02843 1.61187 4.3463C-0.343308 7.3096 -1.16587 12.5793 2.94865 17.6778C6.48678 22.0628 15.4518 29.2678 15.8316 29.5681C15.9412 29.681 16.0723 29.7708 16.217 29.8321C16.3617 29.8934 16.5173 29.925 16.6744 29.925C16.8315 29.925 16.987 29.8934 17.1317 29.8321C17.2764 29.7708 17.4075 29.681 17.5171 29.5681C17.833 29.3151 25.3058 23.3058 29.3019 18.9427C29.3765 18.8542 29.4142 18.7402 29.4074 18.6245C29.4005 18.5088 29.3495 18.4002 29.2649 18.3212L27.6374 16.6675C27.5958 16.6213 27.5451 16.5843 27.4886 16.5588C27.432 16.5332 27.3707 16.5197 27.3087 16.5191C27.2467 16.5185 27.1852 16.5307 27.1281 16.5551C27.071 16.5795 27.0196 16.6155 26.977 16.6608C23.7567 19.9828 20.3428 23.1101 16.7533 26.0263L16.6836 26.0954L16.6315 26.0533H16.5542V25.9891C15.0981 24.7866 8.29239 19.1054 5.47936 15.6168C2.47644 11.8962 2.91504 8.28527 4.32659 6.14502C5.05938 5.05637 6.10397 4.21642 7.32238 3.73612C8.54079 3.25583 9.8757 3.15779 11.1508 3.45494C12.6704 3.95051 14.029 4.84769 15.0838 6.05225C15.7342 6.69398 16.2467 7.20165 16.6802 7.20165C17.1138 7.20165 17.6221 6.69568 18.2716 6.05309C19.3259 4.85186 20.6826 3.95713 22.1996 3.46254C23.4746 3.16557 24.8093 3.26369 26.0275 3.74397C27.2458 4.22426 28.2902 5.06412 29.0229 6.15261C29.7555 7.29309 30.1323 8.627 30.1052 9.98365L30.1009 10.2763L27.8853 8.01626C27.748 7.87564 27.5842 7.76379 27.4035 7.68721C27.2228 7.61063 27.0287 7.57086 26.8325 7.57017H26.8208C26.5265 7.5701 26.2388 7.65734 25.9938 7.82096C25.7488 7.98457 25.5574 8.21725 25.4439 8.48971C25.3303 8.76216 25.2995 9.06224 25.3553 9.35221C25.4112 9.64219 25.5513 9.9091 25.7579 10.1194L30.5715 15.0155Z" fill="#363740"/>
</svg>
